<svg xmlns="http://www.w3.org/2000/svg" xmlns:xlink="http://www.w3.org/1999/xlink" width="500" zoomAndPan="magnify" viewBox="0 0 375 157.92" height="200" preserveAspectRatio="xMidYMid meet" version="1.2"><defs><clipPath id="b6a1c30978"><path d="M 13 3.851562 L 110 3.851562 L 110 147.78125 L 13 147.78125 Z M 13 3.851562 "/></clipPath></defs><g id="cd1e2f0d3b"><g clip-rule="nonzero" clip-path="url(#b6a1c30978)"><path style=" stroke:none;fill-rule:nonzero;fill:#ffffff;fill-opacity:1;" d="M 13.609375 3.851562 L 109.511719 3.851562 L 109.511719 51.804688 L 61.558594 51.804688 Z M 13.609375 51.804688 L 61.558594 51.804688 L 109.511719 99.757812 L 13.609375 99.757812 Z M 13.609375 99.757812 L 61.558594 99.757812 L 61.558594 147.710938 Z M 13.609375 99.757812 "/></g><g style="fill:#ffffff;fill-opacity:1;"><g transform="translate(117.447997, 96.162508)"><path style="stroke:none" d="M 38.53125 -50.4375 L 38.53125 -42.09375 L 16.53125 -42.09375 L 16.53125 -28.734375 L 36.5 -28.734375 L 36.5 -20.5 L 16.53125 -20.5 L 16.53125 0 L 6.5625 0 L 6.5625 -50.4375 Z M 38.53125 -50.4375 "/></g></g><g style="fill:#ffffff;fill-opacity:1;"><g transform="translate(157.361859, 96.162508)"><path style="stroke:none" d="M 5.484375 0 L 5.484375 -38.046875 L 14.765625 -38.046875 L 14.765625 -32.390625 L 15.484375 -32.25 C 16.410156 -34.375 17.617188 -35.929688 19.109375 -36.921875 C 20.609375 -37.910156 22.425781 -38.40625 24.5625 -38.40625 C 26.726562 -38.40625 28.375 -38.035156 29.5 -37.296875 L 27.875 -29.046875 L 27.15625 -28.90625 C 26.53125 -29.164062 25.929688 -29.351562 25.359375 -29.46875 C 24.785156 -29.582031 24.082031 -29.640625 23.25 -29.640625 C 20.582031 -29.640625 18.546875 -28.703125 17.140625 -26.828125 C 15.742188 -24.953125 15.046875 -21.941406 15.046875 -17.796875 L 15.046875 0 Z M 5.484375 0 "/></g></g><g style="fill:#ffffff;fill-opacity:1;"><g transform="translate(186.47794, 96.162508)"><path style="stroke:none" d="M 14.828125 0.71875 C 12.390625 0.71875 10.273438 0.269531 8.484375 -0.625 C 6.691406 -1.519531 5.3125 -2.832031 4.34375 -4.5625 C 3.375 -6.300781 2.890625 -8.390625 2.890625 -10.828125 C 2.890625 -13.085938 3.375 -14.976562 4.34375 -16.5 C 5.3125 -18.03125 6.804688 -19.285156 8.828125 -20.265625 C 10.859375 -21.242188 13.503906 -22 16.765625 -22.53125 C 19.046875 -22.894531 20.773438 -23.296875 21.953125 -23.734375 C 23.140625 -24.171875 23.941406 -24.664062 24.359375 -25.21875 C 24.773438 -25.769531 24.984375 -26.472656 24.984375 -27.328125 C 24.984375 -28.546875 24.554688 -29.472656 23.703125 -30.109375 C 22.847656 -30.753906 21.429688 -31.078125 19.453125 -31.078125 C 17.335938 -31.078125 15.328125 -30.601562 13.421875 -29.65625 C 11.515625 -28.71875 9.859375 -27.476562 8.453125 -25.9375 L 7.765625 -25.9375 L 3.765625 -31.984375 C 5.691406 -34.117188 8.046875 -35.785156 10.828125 -36.984375 C 13.609375 -38.179688 16.644531 -38.78125 19.9375 -38.78125 C 24.976562 -38.78125 28.625 -37.707031 30.875 -35.5625 C 33.132812 -33.425781 34.265625 -30.394531 34.265625 -26.46875 L 34.265625 -9.9375 C 34.265625 -8.238281 35.007812 -7.390625 36.5 -7.390625 C 37.070312 -7.390625 37.632812 -7.488281 38.1875 -7.6875 L 38.671875 -7.5625 L 39.359375 -0.890625 C 38.835938 -0.546875 38.101562 -0.265625 37.15625 -0.046875 C 36.207031 0.171875 35.171875 0.28125 34.046875 0.28125 C 31.773438 0.28125 30 -0.15625 28.71875 -1.03125 C 27.445312 -1.90625 26.535156 -3.273438 25.984375 -5.140625 L 25.25 -5.203125 C 23.382812 -1.253906 19.910156 0.71875 14.828125 0.71875 Z M 17.875 -6.421875 C 20.082031 -6.421875 21.847656 -7.160156 23.171875 -8.640625 C 24.492188 -10.128906 25.15625 -12.191406 25.15625 -14.828125 L 25.15625 -18.703125 L 24.5 -18.84375 C 23.914062 -18.375 23.160156 -17.984375 22.234375 -17.671875 C 21.304688 -17.367188 19.96875 -17.066406 18.21875 -16.765625 C 16.144531 -16.421875 14.65625 -15.828125 13.75 -14.984375 C 12.84375 -14.148438 12.390625 -12.960938 12.390625 -11.421875 C 12.390625 -9.785156 12.867188 -8.539062 13.828125 -7.6875 C 14.796875 -6.84375 16.144531 -6.421875 17.875 -6.421875 Z M 17.875 -6.421875 "/></g></g><g style="fill:#ffffff;fill-opacity:1;"><g transform="translate(226.598891, 96.162508)"><path style="stroke:none" d="M 5.484375 0 L 5.484375 -38.046875 L 14.65625 -38.046875 L 14.65625 -32.953125 L 15.390625 -32.8125 C 16.628906 -34.851562 18.082031 -36.359375 19.75 -37.328125 C 21.414062 -38.296875 23.550781 -38.78125 26.15625 -38.78125 C 29.03125 -38.78125 31.335938 -38.207031 33.078125 -37.0625 C 34.828125 -35.925781 36.109375 -34.265625 36.921875 -32.078125 L 37.640625 -32.078125 C 38.816406 -34.359375 40.328125 -36.046875 42.171875 -37.140625 C 44.023438 -38.234375 46.332031 -38.78125 49.09375 -38.78125 C 56.976562 -38.78125 60.921875 -34.382812 60.921875 -25.59375 L 60.921875 0 L 51.375 0 L 51.375 -24.390625 C 51.375 -26.617188 50.9375 -28.226562 50.0625 -29.21875 C 49.1875 -30.207031 47.78125 -30.703125 45.84375 -30.703125 C 40.601562 -30.703125 37.984375 -27.195312 37.984375 -20.1875 L 37.984375 0 L 28.421875 0 L 28.421875 -24.390625 C 28.421875 -26.617188 27.976562 -28.226562 27.09375 -29.21875 C 26.207031 -30.207031 24.800781 -30.703125 22.875 -30.703125 C 20.414062 -30.703125 18.492188 -29.878906 17.109375 -28.234375 C 15.734375 -26.585938 15.046875 -23.972656 15.046875 -20.390625 L 15.046875 0 Z M 5.484375 0 "/></g></g><g style="fill:#ffffff;fill-opacity:1;"><g transform="translate(292.420668, 96.162508)"><path style="stroke:none" d="M 37.609375 -16.875 L 13.140625 -16.875 C 13.421875 -13.5625 14.363281 -11.148438 15.96875 -9.640625 C 17.582031 -8.140625 19.78125 -7.390625 22.5625 -7.390625 C 24.75 -7.390625 26.519531 -7.796875 27.875 -8.609375 C 29.226562 -9.421875 30.320312 -10.65625 31.15625 -12.3125 L 31.875 -12.3125 L 38.21875 -8.25 C 36.976562 -5.582031 35.101562 -3.421875 32.59375 -1.765625 C 30.09375 -0.109375 26.75 0.71875 22.5625 0.71875 C 18.625 0.71875 15.222656 -0.0234375 12.359375 -1.515625 C 9.503906 -3.015625 7.300781 -5.238281 5.75 -8.1875 C 4.195312 -11.144531 3.421875 -14.753906 3.421875 -19.015625 C 3.421875 -23.335938 4.234375 -26.976562 5.859375 -29.9375 C 7.492188 -32.90625 9.703125 -35.117188 12.484375 -36.578125 C 15.265625 -38.046875 18.394531 -38.78125 21.875 -38.78125 C 27.257812 -38.78125 31.378906 -37.351562 34.234375 -34.5 C 37.097656 -31.644531 38.53125 -27.457031 38.53125 -21.9375 C 38.53125 -19.9375 38.460938 -18.382812 38.328125 -17.28125 Z M 29.390625 -23.046875 C 29.296875 -25.941406 28.625 -28.050781 27.375 -29.375 C 26.125 -30.695312 24.289062 -31.359375 21.875 -31.359375 C 17.039062 -31.359375 14.195312 -28.585938 13.34375 -23.046875 Z M 29.390625 -23.046875 "/></g></g><g style="fill:#ffffff;fill-opacity:1;"><g transform="translate(333.783538, 96.162508)"><path style="stroke:none" d="M 5.484375 0 L 5.484375 -38.046875 L 14.765625 -38.046875 L 14.765625 -32.390625 L 15.484375 -32.25 C 16.410156 -34.375 17.617188 -35.929688 19.109375 -36.921875 C 20.609375 -37.910156 22.425781 -38.40625 24.5625 -38.40625 C 26.726562 -38.40625 28.375 -38.035156 29.5 -37.296875 L 27.875 -29.046875 L 27.15625 -28.90625 C 26.53125 -29.164062 25.929688 -29.351562 25.359375 -29.46875 C 24.785156 -29.582031 24.082031 -29.640625 23.25 -29.640625 C 20.582031 -29.640625 18.546875 -28.703125 17.140625 -26.828125 C 15.742188 -24.953125 15.046875 -21.941406 15.046875 -17.796875 L 15.046875 0 Z M 5.484375 0 "/></g></g></g></svg>