<svg xmlns="http://www.w3.org/2000/svg" xmlns:xlink="http://www.w3.org/1999/xlink" width="500" zoomAndPan="magnify" viewBox="0 0 375 157.92" height="200" preserveAspectRatio="xMidYMid meet" version="1.2"><defs><clipPath id="dc9a13244c"><path d="M 2.117188 18.273438 L 115.308594 18.273438 L 115.308594 131.464844 L 2.117188 131.464844 Z M 2.117188 18.273438 "/></clipPath></defs><g id="3acbea3818"><g clip-rule="nonzero" clip-path="url(#dc9a13244c)"><path style=" stroke:none;fill-rule:nonzero;fill:#000000;fill-opacity:1;" d="M 55.007812 18.304688 C 54.761719 18.324219 53.988281 18.402344 53.292969 18.457031 C 37.214844 19.90625 22.15625 28.582031 12.617188 41.914062 C 7.304688 49.324219 3.910156 57.734375 2.625 66.636719 C 2.171875 69.746094 2.117188 70.664062 2.117188 74.878906 C 2.117188 79.09375 2.171875 80.015625 2.625 83.121094 C 5.703125 104.375 20.828125 122.230469 41.339844 128.847656 C 45.015625 130.03125 48.886719 130.839844 53.292969 131.324219 C 55.007812 131.511719 62.421875 131.511719 64.136719 131.324219 C 71.738281 130.484375 78.175781 128.601562 84.527344 125.363281 C 85.5 124.863281 85.6875 124.730469 85.554688 124.621094 C 85.46875 124.554688 81.320312 118.988281 76.339844 112.261719 L 67.289062 100.039062 L 55.945312 83.253906 C 49.707031 74.027344 44.574219 66.484375 44.527344 66.484375 C 44.484375 66.472656 44.441406 73.929688 44.417969 83.035156 C 44.382812 98.976562 44.375 99.617188 44.175781 99.992188 C 43.886719 100.535156 43.664062 100.757812 43.199219 101 C 42.847656 101.175781 42.535156 101.210938 40.867188 101.210938 L 38.953125 101.210938 L 38.441406 100.890625 C 38.109375 100.679688 37.867188 100.402344 37.703125 100.082031 L 37.46875 99.585938 L 37.492188 77.402344 L 37.523438 55.210938 L 37.867188 54.777344 C 38.042969 54.546875 38.421875 54.246094 38.6875 54.105469 C 39.140625 53.882812 39.316406 53.859375 41.230469 53.859375 C 43.488281 53.859375 43.863281 53.949219 44.449219 54.589844 C 44.617188 54.769531 50.757812 64.015625 58.105469 75.15625 C 65.453125 86.296875 75.5 101.507812 80.433594 108.976562 L 89.394531 122.550781 L 89.847656 122.253906 C 93.867188 119.640625 98.113281 115.925781 101.480469 112.054688 C 108.636719 103.832031 113.25 93.808594 114.800781 83.121094 C 115.253906 80.015625 115.308594 79.09375 115.308594 74.878906 C 115.308594 70.664062 115.253906 69.746094 114.800781 66.636719 C 111.726562 45.386719 96.597656 27.53125 76.085938 20.914062 C 72.464844 19.742188 68.617188 18.933594 64.300781 18.449219 C 63.238281 18.335938 55.925781 18.214844 55.007812 18.304688 Z M 78.175781 52.53125 C 78.707031 52.796875 79.140625 53.308594 79.292969 53.839844 C 79.382812 54.125 79.40625 60.277344 79.382812 74.140625 L 79.347656 94.03125 L 75.839844 88.652344 L 72.324219 83.277344 L 72.324219 68.816406 C 72.324219 59.46875 72.367188 54.214844 72.433594 53.960938 C 72.609375 53.339844 72.996094 52.855469 73.527344 52.566406 C 73.984375 52.332031 74.148438 52.3125 75.886719 52.3125 C 77.523438 52.3125 77.8125 52.332031 78.175781 52.53125 Z M 78.175781 52.53125 "/></g><g style="fill:#ffffff;fill-opacity:1;"><g transform="translate(122.296356, 97.467635)"><path style="stroke:none" d="M 16.125 0 L 6.515625 0 L 6.515625 -50.1875 L 17.890625 -50.1875 L 38.03125 -17.84375 L 38.921875 -17.984375 L 38.921875 -50.1875 L 48.46875 -50.1875 L 48.46875 0 L 38.3125 0 L 16.984375 -34.53125 L 16.125 -34.390625 Z M 16.125 0 "/></g></g><g style="fill:#ffffff;fill-opacity:1;"><g transform="translate(177.312712, 97.467635)"><path style="stroke:none" d="M 37.40625 -16.78125 L 13.078125 -16.78125 C 13.347656 -13.488281 14.285156 -11.09375 15.890625 -9.59375 C 17.492188 -8.09375 19.679688 -7.34375 22.453125 -7.34375 C 24.617188 -7.34375 26.378906 -7.75 27.734375 -8.5625 C 29.085938 -9.375 30.175781 -10.601562 31 -12.25 L 31.71875 -12.25 L 38.03125 -8.203125 C 36.789062 -5.546875 34.925781 -3.394531 32.4375 -1.75 C 29.945312 -0.101562 26.617188 0.71875 22.453125 0.71875 C 18.535156 0.71875 15.148438 -0.0195312 12.296875 -1.5 C 9.453125 -2.988281 7.253906 -5.203125 5.703125 -8.140625 C 4.160156 -11.085938 3.390625 -14.675781 3.390625 -18.90625 C 3.390625 -23.207031 4.203125 -26.832031 5.828125 -29.78125 C 7.453125 -32.738281 9.648438 -34.941406 12.421875 -36.390625 C 15.191406 -37.847656 18.304688 -38.578125 21.765625 -38.578125 C 27.117188 -38.578125 31.21875 -37.15625 34.0625 -34.3125 C 36.914062 -31.476562 38.34375 -27.316406 38.34375 -21.828125 C 38.34375 -19.835938 38.273438 -18.296875 38.140625 -17.203125 Z M 29.25 -22.921875 C 29.15625 -25.804688 28.484375 -27.90625 27.234375 -29.21875 C 25.984375 -30.539062 24.160156 -31.203125 21.765625 -31.203125 C 16.953125 -31.203125 14.125 -28.441406 13.28125 -22.921875 Z M 29.25 -22.921875 "/></g></g><g style="fill:#ffffff;fill-opacity:1;"><g transform="translate(217.879912, 97.467635)"><path style="stroke:none" d="M 10.671875 0 L 0.65625 0 L 11.46875 -19.640625 L 1.234375 -37.859375 L 11.390625 -37.859375 L 17.953125 -25.40625 L 18.734375 -25.40625 L 25.328125 -37.859375 L 35.1875 -37.859375 L 25.265625 -19.640625 L 35.765625 0 L 25.640625 0 L 18.5 -13.828125 L 17.71875 -13.828125 Z M 10.671875 0 "/></g></g><g style="fill:#ffffff;fill-opacity:1;"><g transform="translate(254.294364, 97.467635)"><path style="stroke:none" d="M 26.125 -9.03125 L 28.59375 -1.984375 C 27.5625 -1.140625 26.265625 -0.476562 24.703125 0 C 23.148438 0.476562 21.390625 0.71875 19.421875 0.71875 C 15.328125 0.71875 12.21875 -0.394531 10.09375 -2.625 C 7.96875 -4.851562 6.90625 -8.097656 6.90625 -12.359375 L 6.90625 -30.34375 L 1.125 -30.34375 L 1.125 -37.890625 L 6.90625 -37.890625 L 6.90625 -45.28125 L 16.40625 -46.8125 L 16.40625 -37.890625 L 27.15625 -37.890625 L 27.15625 -30.34375 L 16.40625 -30.34375 L 16.40625 -13.046875 C 16.40625 -11.171875 16.789062 -9.800781 17.5625 -8.9375 C 18.34375 -8.082031 19.476562 -7.65625 20.96875 -7.65625 C 22.664062 -7.65625 24.144531 -8.113281 25.40625 -9.03125 Z M 26.125 -9.03125 "/></g></g><g style="fill:#ffffff;fill-opacity:1;"><g transform="translate(283.707362, 97.467635)"><path style="stroke:none" d="M 17.578125 0.71875 C 13.316406 0.71875 9.78125 -0.0859375 6.96875 -1.703125 C 4.15625 -3.316406 2.109375 -5.484375 0.828125 -8.203125 L 6.421875 -15 L 7.28125 -15 C 8.195312 -12.800781 9.492188 -11.066406 11.171875 -9.796875 C 12.859375 -8.523438 14.8125 -7.890625 17.03125 -7.890625 C 19.519531 -7.890625 21.367188 -8.613281 22.578125 -10.0625 C 23.796875 -11.519531 24.40625 -13.882812 24.40625 -17.15625 L 24.40625 -50.1875 L 34.296875 -50.1875 L 34.296875 -16.984375 C 34.296875 -10.921875 32.914062 -6.453125 30.15625 -3.578125 C 27.394531 -0.710938 23.203125 0.71875 17.578125 0.71875 Z M 17.578125 0.71875 "/></g></g><g style="fill:#ffffff;fill-opacity:1;"><g transform="translate(324.205971, 97.467635)"><path style="stroke:none" d="M 17.71875 0.71875 C 15.125 0.71875 12.75 0.414062 10.59375 -0.1875 C 8.445312 -0.789062 6.613281 -1.625 5.09375 -2.6875 C 3.570312 -3.757812 2.445312 -4.976562 1.71875 -6.34375 L 7 -12.046875 L 7.71875 -12.046875 C 8.976562 -10.359375 10.46875 -9.085938 12.1875 -8.234375 C 13.90625 -7.390625 15.769531 -6.96875 17.78125 -6.96875 C 19.632812 -6.96875 21.03125 -7.296875 21.96875 -7.953125 C 22.90625 -8.617188 23.375 -9.570312 23.375 -10.8125 C 23.375 -11.769531 23.035156 -12.570312 22.359375 -13.21875 C 21.679688 -13.875 20.585938 -14.390625 19.078125 -14.765625 L 14.078125 -15.96875 C 10.316406 -16.851562 7.570312 -18.21875 5.84375 -20.0625 C 4.125 -21.90625 3.265625 -24.242188 3.265625 -27.078125 C 3.265625 -29.441406 3.863281 -31.488281 5.0625 -33.21875 C 6.257812 -34.957031 7.953125 -36.285156 10.140625 -37.203125 C 12.328125 -38.117188 14.875 -38.578125 17.78125 -38.578125 C 21.1875 -38.578125 24.007812 -38.082031 26.25 -37.09375 C 28.5 -36.113281 30.253906 -34.800781 31.515625 -33.15625 L 26.4375 -27.671875 L 25.75 -27.671875 C 24.695312 -28.859375 23.507812 -29.722656 22.1875 -30.265625 C 20.875 -30.816406 19.40625 -31.09375 17.78125 -31.09375 C 14.03125 -31.09375 12.15625 -29.925781 12.15625 -27.59375 C 12.15625 -26.613281 12.503906 -25.8125 13.203125 -25.1875 C 13.898438 -24.570312 15.128906 -24.070312 16.890625 -23.6875 L 21.5625 -22.65625 C 25.40625 -21.832031 28.210938 -20.507812 29.984375 -18.6875 C 31.753906 -16.875 32.640625 -14.429688 32.640625 -11.359375 C 32.640625 -8.953125 32.046875 -6.832031 30.859375 -5 C 29.671875 -3.175781 27.953125 -1.765625 25.703125 -0.765625 C 23.460938 0.222656 20.800781 0.71875 17.71875 0.71875 Z M 17.71875 0.71875 "/></g></g></g></svg>